{"title":"Fubar 2 2010 720p.BRRip.x264.Feel-Free","uid":6090995,"size":1610131670,"categoryP":"video","categoryS":"hd___movies","magnet":"?xt=urn:btih:908d9c0353eca59b94d6581be4090e4241e5dab4&amp;dn=Fubar+2+2010+720p.BRRip.x264.Feel-Free&amp;tr=udp%3A%2F%2Ftracker.openbittorrent.com%3A80&amp;tr=udp%3A%2F%2Fopen.demonii.com%3A1337&amp;tr=udp%3A%2F%2Ftracker.coppersurfer.tk%3A6969&amp;tr=udp%3A%2F%2Fexodus.desync.com%3A6969","seeders":1,"leechers":1,"uploader":"neon","files":-1,"time":1294562679,"description":"Genre:Comedy\nLanguage:English\n &lt;a href=&quot; http://www.imdb.com/title/tt1555747/&quot; rel=&quot;nofollow&quot; target=&quot;_NEW&quot;&gt; http://www.imdb.com/title/tt1555747/&lt;/a&gt;\nSource:BluRay.x264-aAF\n\n\n\nFormat : Matroska\nFile size : 1.49 GiB\nDuration : 1h 25mn\nOverall bit rate : 2 496 Kbps\n\n\nVideo\nFormat settings, CABAC : Yes\nFormat settings, ReFrames : 4 frames\nFormat settings, GOP : M=4, N=16\nCodec ID : V_MPEG4/ISO/AVC\nDuration : 1h 25mn\nBit rate : 2 062 Kbps\nNominal bit rate : 2 200 Kbps\nWidth : 1 280 pixels\nHeight : 720 pixels\nDisplay aspect ratio : 16:9\nFrame rate mode : Variable\nFrame rate : 23.976 fps\nColor space : YUV\nChroma subsampling : 4:2:0\nBit depth : 8 bits\nScan type : Progressive\nBits/(Pixel*Frame) : 0.093\nStream size : 1.23 GiB (83%)\nWriting library : x264\n\n\nAudio\nID : 2\nFormat : AC-3\nFormat/Info : Audio Coding 3\nMode extension : CM (complete main)\nCodec ID : A_AC3\nDuration : 1h 25mn\nBit rate mode : Constant\nBit rate : 384 Kbps\nChannel(s) : 6 channels\nChannel positions : Front: L C R, Side: L R, LFE\nSampling rate : 48.0 KHz\nBit depth : 16 bits\nVideo delay : -1mn 5s\nStream size : 235 MiB (15%)\nLanguage : English\n\n\n\nPlot:\nTerry and Dean head north to make sweet cash in the oil patch.\n\n\nGet fubar 1 and 2 Dvdrip &lt;a href=&quot;\nhttp://thepiratebay.se/torrent/6089727/Fubar_1_and_2_DVDRip_XViD-ViP3R&quot; rel=&quot;nofollow&quot; target=&quot;_NEW&quot;&gt;\nhttp://thepiratebay.se/torrent/6089727/Fubar_1_and_2_DVDRip_XViD-ViP3R&lt;/a&gt;","torrent":{"xt":"urn:btih:908d9c0353eca59b94d6581be4090e4241e5dab4","amp;dn":"Fubar+2+2010+720p.BRRip.x264.Feel-Free","amp;tr":["udp%3A%2F%2Ftracker.openbittorrent.com%3A80","udp%3A%2F%2Fopen.demonii.com%3A1337","udp%3A%2F%2Ftracker.coppersurfer.tk%3A6969","udp%3A%2F%2Fexodus.desync.com%3A6969"],"infoHash":"908d9c0353eca59b94d6581be4090e4241e5dab4","infoHashBuffer":{"type":"Buffer","data":[144,141,156,3,83,236,165,155,148,214,88,27,228,9,14,66,65,229,218,180]},"announce":[],"urlList":[]}}